@startuml

package "<<agr Exam>>"{
    class Exam  <<entity>><<root>> {}
    class ExamType <<enum>><<vo>>{}
    class ExamTitle <<vo>>{}
    class ExamHeaderTextualDescription <<vo>>{}
    class ExamInitalDateTime <<vo>> {}
    class ExamFinalDateTime <<vo>>{}

    Teacher --> "*" Exam : creates
    Exam --> "1" ExamTitle
    Exam --> "0..1" ExamHeaderTextualDescription
    Exam --> "1" Course : belongs to
    Exam --> "1" ExamType
    Exam --> "1" ExamInitalDateTime
    Exam --> "1" ExamFinalDateTime

}

package "<<agr ExamSection>>"{
    class ExamSection <<entity>><<root>> {}
    class ExamSectionTextualDescription <<vo>>{}

    ExamSection "*" <-- Exam
    ExamSection --> "0..1" ExamSectionTextualDescription
}

package "<<agr ExamQuestion>>"{
    class ExamQuestion <<entity>><<root>>{}
    class ExamQuestionStatement <<vo>>{}
    class ExamQuestionFeedback <<vo>>{}
    class ExamQuestionValue <<vo>>{}
    class ExamQuestionSolution<<vo>>{}
    class ExamQuestionType <<vo>><<enum>>{}

    ExamQuestion "*" <-- ExamSection
    ExamQuestion --> "1" ExamQuestionValue
    ExamQuestion --> "*" ExamQuestionFeedback
    ExamQuestion --> "1" ExamQuestionSolution
    ExamQuestion --> "1" ExamQuestionType
    ExamQuestion --> "1" ExamQuestionStatement

}

package "<<agr Course>>"{
    class Course<<entity>><<root>>{}
    class Code <<vo>>
    class Description<<vo>>{}
    class Title<<vo>>{}
    class State<<vo>><<enum>>{}

    Course  --> "1" State
    Course  -down-> "1" Title
    Course  -down-> "1" Description
    Course  -down-> "1" Code
    Course --> "*" Teacher : is ruled by


}

@enduml