@startuml

hide circles
hide attributes
hide methods

package "<<agr MeetingParticipation>>"{
    class MeetingParticipation<<entity>><<root>>{}
    class MeetingParticipationState<<vo>>{}

    MeetingParticipation --> "*" SystemUser
    MeetingParticipation --> "1" MeetingParticipationState
}

package "<<agr Meeting>>"{
    class Meeting<<entity>><<root>>{}
    class MeetingDuration<<vo>>{}
    class MeetingDateNTime<<vo>>{}
    class MeetingName<<vo>>{}
    class MeetingState<<vo>><<enum>>{}

    Meeting "*" <-- MeetingParticipation : regards
    Meeting --> "1" MeetingDuration
    Meeting --> "1" MeetingDateNTime
    Meeting --> "1" MeetingName
    Meeting --> "1" MeetingState
}

@enduml