@startuml
'https://plantuml.com/class-diagram

package "<<agr Teacher>>"{

    class Teacher<<entity>><<root>>{}
    class Acronym<<vo>>{}
    class TaxPayerNumber<<vo>>{}
    class DateOfBirth<<vo>>{}

    SystemUser "1" <-- Teacher
    Teacher -down-> "1" Acronym
    Teacher --> "1" DateOfBirth
    Teacher --> "1" TaxPayerNumber
}

package "<<agr Course>>"{
    class Course<<entity>><<root>>{}
    class Code <<vo>>
    class Description<<vo>>{}
    class Title<<vo>>{}
    class State<<vo>><<enum>>{}

    Course  --> "1" State
    Course  -down-> "1" Title
    Course  -down-> "1" Description
    Course  -down-> "1" Code
    Course --> "*" Teacher : is ruled by


}

package "<<agr Exam>>"{
    class Exam  <<entity>><<root>> {}
    class ExamType <<enum>><<vo>>{}
    class ExamTitle <<vo>>{}
    class ExamHeaderTextualDescription <<vo>>{}
    class ExamInitalDateTime <<vo>> {}
    class ExamFinalDateTime <<vo>>{}

    Teacher --> "*" Exam : creates
    Exam --> "1" ExamTitle
    Exam --> "0..1" ExamHeaderTextualDescription
    Exam --> "1" Course : belongs to
    Exam --> "1" ExamType
    Exam --> "1" ExamInitalDateTime
    Exam --> "1" ExamFinalDateTime

}

package "<<agr FormerExam>>"{
    class FormerExam<<entity>><<root>>{}
    class FinalGrade<<vo>>{}

    FormerExam --> "1" FinalGrade
    FormerExam --> "1" Exam
    FormerExam --> "1" Student
}


hide circle
hide fields


@enduml
@enduml